{"title":"Gori Tere Pyaar Mein - Official Trailer - Imran Khan, Kareena Ka","uid":8909374,"size":77507366,"categoryP":"video","categoryS":"music_videos","magnet":"?xt=urn:btih:f0b3785f7b18b6a5ff5d766fd0e4b2fdb9c0d27f&amp;dn=Gori+Tere+Pyaar+Mein+-+Official+Trailer+-+Imran+Khan%2C+Kareena+Ka&amp;tr=udp%3A%2F%2Ftracker.openbittorrent.com%3A80&amp;tr=udp%3A%2F%2Fopen.demonii.com%3A1337&amp;tr=udp%3A%2F%2Ftracker.coppersurfer.tk%3A6969&amp;tr=udp%3A%2F%2Fexodus.desync.com%3A6969","seeders":1,"leechers":0,"uploader":"Palash995","files":1,"time":1378981484,"description":"You may not always make the right decision in your life. By the time you realize it, the damage has already been done. But, sometimes it is never too late to change those wrong decisions into right ones. \nBut, are you willing to do what it takes to turn it around?\n\nHere's bringing to you the trailer of 'Gori Tere Pyaar Mein', a film by Punit Malhotra.\n\nDirected By: Punit Malhotra\nProduced By: Dharma Productions\nStarring: Imran Khan, Kareena Kapoor\nMusic By: Vishal - Shekhar\n\nMedia Info:-\n\nGeneral \nComplete name : Raghupati Raghav Krrish 3 - Hrithik Roshan, Priyanka Chopra - HD 1080P - By Palash.MP4 \nFormat : MPEG-4 \nFormat profile : Base Media / Version 2 \nCodec ID : mp42 \nFile size : 104 MiB \nDuration : 2mn 34s \nOverall bit rate mode : Variable \nOverall bit rate : 5 644 Kbps \nEncoded date : UTC 2013-09-10 08:16:44 \nTagged date : UTC 2013-09-10 08:16:44 \ngsst : 0 \ngstd : 154946 \ngssd : BADC23462HH1378923617618227 \n\nVideo \nID : 1 \nFormat : AVC \nFormat/Info : Advanced Video Codec \nFormat profile : &lt;a class=&quot;__cf_email__&quot; href=&quot;/cdn-cgi/l/email-protection&quot; data-cfemail=&quot;feb6979996beb2cad0ce&quot;&gt;[email&amp;#160;protected]&lt;/a&gt;&lt;script cf-hash='f9e31' type=&quot;text/javascript&quot;&gt;\n/* &lt;![CDATA[ */!function(){try{var t=&quot;currentScript&quot;in document?document.currentScript:function(){for(var t=document.getElementsByTagName(&quot;script&quot;),e=t.length;e--;)if(t[e].getAttribute(&quot;cf-hash&quot;))return t[e]}();if(t&amp;&amp;t.previousSibling){var e,r,n,i,c=t.previousSibling,a=c.getAttribute(&quot;data-cfemail&quot;);if(a){for(e=&quot;&quot;,r=parseInt(a.substr(0,2),16),n=2;a.length-n;n+=2)i=parseInt(a.substr(n,2),16)^r,e+=String.fromCharCode(i);e=document.createTextNode(e),c.parentNode.replaceChild(e,c)}}}catch(u){}}();/* ]]&gt; */&lt;/script&gt; \nFormat settings, CABAC : Yes \nFormat settings, ReFrames : 1 frame \nCodec ID : avc1 \nCodec ID/Info : Advanced Video Coding \nDuration : 2mn 34s \nBit rate : 5 450 Kbps \nMaximum bit rate : 7 782 Kbps \nWidth : 1 920 pixels \nHeight : 1 080 pixels \nDisplay aspect ratio : 16:9 \nFrame rate mode : Constant \nFrame rate : 25.000 fps \nColor space : YUV \nChroma subsampling : 4:2:0 \nBit depth : 8 bits \nScan type : Progressive \nBits/(Pixel*Frame) : 0.105 \nStream size : 101 MiB (97%) \nTagged date : UTC 2013-09-10 08:16:46 \n\nAudio \nID : 2 \nFormat : AAC \nFormat/Info : Advanced Audio Codec \nFormat profile : LC \nCodec ID : 40 \nDuration : 2mn 34s \nBit rate mode : Variable \nBit rate : 192 Kbps \nMaximum bit rate : 201 Kbps \nChannel(s) : 2 channels \nChannel positions : Front: L R \nSampling rate : 44.1 KHz \nCompression mode : Lossy \nStream size : 3.55 MiB (3%) \nTitle : IsoMedia File Produced by Google, 5-11-2011 \nEncoded date : UTC 2013-09-10 08:16:46 \nTagged date : UTC 2013-09-10 08:16:46 \n\nScreenshots:-\n &lt;a href=&quot;\nhttp://img809.imageshack.us/img809/8564/5b5w.jpg&quot; rel=&quot;nofollow&quot; target=&quot;_NEW&quot;&gt;\nhttp://img809.imageshack.us/img809/8564/5b5w.jpg&lt;/a&gt;\n\n &lt;a href=&quot;\nhttp://img854.imageshack.us/img854/1829/47j8.jpg&quot; rel=&quot;nofollow&quot; target=&quot;_NEW&quot;&gt;\nhttp://img854.imageshack.us/img854/1829/47j8.jpg&lt;/a&gt;\n &lt;a href=&quot;\nhttp://img534.imageshack.us/img534/6114/fhyt.jpg&quot; rel=&quot;nofollow&quot; target=&quot;_NEW&quot;&gt;\nhttp://img534.imageshack.us/img534/6114/fhyt.jpg&lt;/a&gt;\n &lt;a href=&quot;\nhttp://img19.imageshack.us/img19/8763/qejy.jpg&quot; rel=&quot;nofollow&quot; target=&quot;_NEW&quot;&gt;\nhttp://img19.imageshack.us/img19/8763/qejy.jpg&lt;/a&gt;","torrent":{"xt":"urn:btih:f0b3785f7b18b6a5ff5d766fd0e4b2fdb9c0d27f","amp;dn":"Gori+Tere+Pyaar+Mein+-+Official+Trailer+-+Imran+Khan%2C+Kareena+Ka","amp;tr":["udp%3A%2F%2Ftracker.openbittorrent.com%3A80","udp%3A%2F%2Fopen.demonii.com%3A1337","udp%3A%2F%2Ftracker.coppersurfer.tk%3A6969","udp%3A%2F%2Fexodus.desync.com%3A6969"],"infoHash":"f0b3785f7b18b6a5ff5d766fd0e4b2fdb9c0d27f","infoHashBuffer":{"type":"Buffer","data":[240,179,120,95,123,24,182,165,255,93,118,111,208,228,178,253,185,192,210,127]},"announce":[],"urlList":[]}}